<svg width="129" height="120" viewBox="0 0 77 59" fill="none" xmlns="http://www.w3.org/2000/svg">
<path class="icon_hospital" d="M5.24597 55C5.46597 56.976 7.22197 58.513 9.19797 58.293C15.565 57.634 23.909 56.756 38.4 56.756H38.619C53.111 56.756 61.454 57.634 67.821 58.293C69.797 58.513 71.554 56.976 71.773 55C71.773 54.561 71.554 54.341 71.115 54.341C65.406 53.682 55.745 52.584 38.4 52.584H38.18C20.835 52.584 11.174 53.682 5.46597 54.341C5.46597 54.341 5.24597 54.78 5.24597 55Z" fill="#03173E"/>
<path class="icon_hospital" d="M37.08 20.529H39.934C40.373 20.529 40.593 20.309 40.593 19.87V16.577H43.886C44.325 16.577 44.545 16.357 44.545 15.918V13.064C44.545 12.625 44.325 12.405 43.886 12.405H40.593V9.112C40.593 8.672 40.373 8.453 39.934 8.453H37.08C36.64 8.453 36.421 8.672 36.421 9.112V12.405H33.127C32.688 12.405 32.469 12.625 32.469 13.064V15.918C32.469 16.357 32.688 16.577 33.127 16.577H36.421V19.87C36.64 20.309 36.86 20.529 37.08 20.529Z" fill="#03173E"/>
<path class="icon_hospital" d="M68.257 50.609C69.355 50.828 70.452 50.828 71.331 51.048C71.77 51.048 71.989 50.828 71.989 50.389C71.989 47.315 71.989 34.581 71.989 28.433H75.722C76.161 28.433 76.6 27.994 76.381 27.555L70.013 13.064C70.013 12.844 69.574 12.625 69.355 12.625H52.229C51.351 6.038 45.642 0.768005 38.616 0.768005C31.59 0.768005 25.881 5.818 25.003 12.625H7.877C7.658 12.625 7.43798 12.625 7.21898 12.844L0.851003 27.335C0.632003 27.774 1.071 28.214 1.51 28.214H5.462C5.462 34.581 5.462 47.096 5.462 50.17C5.462 50.609 5.90099 50.828 6.12099 50.828C6.99899 50.609 8.097 50.609 9.195 50.389C9.634 50.389 9.85299 50.17 9.85299 49.731V27.994H38.616H67.598V49.731C67.598 50.389 68.037 50.609 68.257 50.609ZM70.013 23.822H48.716C50.472 21.846 51.79 19.431 52.229 16.796H66.939L70.013 23.822ZM38.836 5.16C44.105 5.16 48.277 9.33101 48.277 14.601C48.277 19.87 44.105 24.042 38.836 24.042C33.566 24.042 29.394 19.651 29.394 14.601C29.394 9.55101 33.566 5.16 38.836 5.16ZM10.293 17.016H25.223C25.662 19.651 26.979 22.066 28.736 24.042H7.21898L10.293 17.016Z" fill="#0B183D"/>
<path class="icon_hospital" d="M46.2799 49.291C47.3779 49.291 48.2559 49.291 49.3539 49.291C49.7929 49.291 50.0129 49.072 50.0129 48.633V36.557C50.0129 35.02 48.6949 33.702 47.1579 33.702H34.6429C33.1059 33.702 31.7889 35.02 31.7889 36.557V49.511C31.7889 49.95 32.0089 50.17 32.4479 50.17C33.3259 50.17 34.4239 49.95 35.5219 49.95C35.9609 49.95 36.1799 49.73 36.1799 49.291V38.094H45.6209V48.852C45.6209 49.072 46.0609 49.291 46.2799 49.291Z" fill="#0B183D"/>
<path class="icon_hospital" d="M49.106 47.754V34.361C49.106 33.922 48.886 33.702 48.447 33.702H25.393C24.954 33.702 24.734 33.922 24.734 34.361V46.876C24.734 47.315 24.954 47.535 25.393 47.535C35.054 47.535 42.738 47.974 48.447 48.413C48.667 48.413 49.106 48.193 49.106 47.754ZM44.714 43.802C39.884 43.363 34.615 43.363 29.126 43.144V38.094H44.714V43.802Z" fill="#0B183D"/>
</svg>
