<svg width="60" height="60" viewBox="0 0 60 60" fill="none" xmlns="http://www.w3.org/2000/svg">
<path d="M0 30C0 13.4315 13.4315 0 30 0C46.5685 0 60 13.4315 60 30C60 46.5685 46.5685 60 30 60C13.4315 60 0 46.5685 0 30Z" fill="#E05929"/>
<path fill-rule="evenodd" clip-rule="evenodd" d="M39.5816 24.9898C39.0237 24.432 38.1192 24.432 37.5613 24.9898L30 32.5511L22.4387 24.9898C21.8808 24.432 20.9763 24.432 20.4184 24.9898C19.8605 25.5477 19.8605 26.4523 20.4184 27.0102L28.9898 35.5816C29.5477 36.1395 30.4523 36.1395 31.0102 35.5816L39.5816 27.0102C40.1395 26.4523 40.1395 25.5477 39.5816 24.9898Z" fill="white"/>
</svg>
